<svg xmlns="http://www.w3.org/2000/svg" width="195" height="87.375"><g data-name="Group 11394"><g fill="#fff"><g data-name="Group 9073"><g data-name="Group 9069"><path data-name="Path 32352" d="M17.932 22.496h5.785l2.965-5.364a214.04 214.04 0 00-10.161 2.82z"/><path data-name="Path 32353" d="M32.389 22.496h6.51v-8.131c-2.267.461-4.441.923-6.51 1.4z"/><path data-name="Path 32354" d="M20.818 15.814L12.015 0H2.5v22.5l6.51-2.53V6.418l6.339 11.439c3.6-1.12 7.907-2.359 12.915-3.585l4.125-7.432v6.46c2.069-.474 4.244-.936 6.51-1.4V0h-9.225z"/></g><g data-name="Group 9070"><path data-name="Path 32355" d="M84.44 17.132l2.754 5.4h7.2l-7-13.877c-2.4.079-4.744.185-7.051.316l1.475 2.889h-3.73l2.5 5.271z"/><path data-name="Path 32356" d="M62.379 22.496h7.248l6.642-13.271c-2.636.171-5.074.382-7.512.606z"/><path data-name="Path 32357" d="M86.18 6.273L83.017 0h-9.225l-3.69 7.3q3.65-.329 7.5-.593l1.555-.119a565.25 565.25 0 017.023-.315z"/></g><g data-name="Group 9071"><path data-name="Path 32358" d="M133.787 22.496v-7.538l3.255-4.2q-6.497-.782-13.587-1.322l4.244 5.5v7.538z"/><path data-name="Path 32359" d="M131.718 7.71c2.425.237 4.784.5 7.09.791L145.397 0h-7.657z"/><path data-name="Path 32360" d="M129.662 7.512L123.863 0h-7.7l5.274 6.853q4.245.277 8.225.659z"/></g><g data-name="Group 9072"><path data-name="Path 32361" d="M183.306 0h-9.4l-7.047 13.969c2.293.527 4.454 1.067 6.484 1.595l5.271-10.424 3.479 6.879h-3.716l2.53 5.271h3.954l.962 1.9a92.524 92.524 0 018.922 3.308z"/><path data-name="Path 32362" d="M162.563 22.496h7.3l2.636-5.271q-3.057-.791-6.5-1.581z"/></g></g><g data-name="Group 9074"><path data-name="Path 32363" d="M37.606 34.461h3.835v-1.954h-3.835v-2.3h4.533v-1.94h-6.668v10.94h6.827v-1.95h-4.692z"/><path data-name="Path 32364" d="M64.333 30.073a2.333 2.333 0 011.832.791l.316.343 1.318-1.463-.277-.277a4.23 4.23 0 00-3.2-1.318c-3.031 0-5.061 2.267-5.061 5.654s1.977 5.588 4.942 5.588a4.81 4.81 0 003.426-1.318l.119-.132v-4.824h-4.153v1.924h2.135v1.99a2.517 2.517 0 01-1.318.382c-1.858 0-2.926-1.318-2.926-3.7s1.054-3.64 2.847-3.64z"/><path data-name="Rectangle 23142" d="M73.175 28.267h2.135v10.938h-2.135z"/><path data-name="Path 32365" d="M96.33 34.461h3.822v-1.954H96.33v-2.3h4.52v-1.94h-6.668v10.94h6.827v-1.95H96.33z"/><path data-name="Path 32366" d="M108.573 34.461h3.825v-1.954h-3.825v-2.3h4.525v-1.94h-6.66v10.94h6.813v-1.95h-4.678z"/><path data-name="Path 32367" d="M126.219 31.482c0-1.476-.685-3.255-3.954-3.255h-3.584v10.938h2.135v-4.217h1.147l2.425 4.257h2.438l-2.636-4.573a3.137 3.137 0 002.029-3.15zm-4.151 1.568h-1.317v-2.886h1.318c1.674 0 2.016.54 2.016 1.318-.001.422-.001 1.568-2.017 1.568z"/><path data-name="Rectangle 23143" d="M132.11 28.267h2.135v10.938h-2.135z"/><path data-name="Path 32368" d="M158.218 30.073a2.333 2.333 0 011.832.791l.329.343 1.318-1.463-.277-.277a4.217 4.217 0 00-3.189-1.318c-3.044 0-5.074 2.267-5.074 5.654s1.964 5.588 4.929 5.588a4.81 4.81 0 003.426-1.318l.132-.132v-4.824h-4.164v1.924h2.135v1.99a2.517 2.517 0 01-1.318.382c-1.858 0-2.926-1.318-2.926-3.7s1.054-3.64 2.847-3.64z"/><path data-name="Path 32369" d="M52.998 35.476l-4.046-7.222h-2.016v10.965h1.977v-7.235l4.072 7.235h1.99V28.254h-1.977z"/><path data-name="Path 32370" d="M86.8 35.476l-4.057-7.222h-2v10.965H82.7v-7.235l4.072 7.235h1.99V28.254H86.8z"/><path data-name="Path 32371" d="M146.475 35.476l-4.059-7.222h-2v10.965h1.964v-7.235l4.072 7.235h1.99V28.254h-1.964z"/></g></g><g fill="#fff"><g data-name="Group 11392"><g data-name="Group 11388"><path data-name="Path 42753" d="M32.84 87.313h3.1l1.581-2.909a77.8 77.8 0 00-5.437 1.517z"/><path data-name="Path 42754" d="M40.615 87.313h3.476V82.95c-1.2.253-2.4.505-3.476.759z"/><path data-name="Path 42755" d="M34.419 83.709l-4.74-8.534h-5.122v12.076l3.476-1.392v-7.208l3.414 6.132c1.9-.633 4.235-1.264 6.955-1.9l2.212-3.983v3.48c1.138-.253 2.276-.505 3.476-.759v-6.446h-4.993l-4.742 8.536h.064z"/></g><g data-name="Group 11389"><path data-name="Path 42756" d="M68.686 84.343l1.454 2.909h3.858l-3.73-7.4c-1.264 0-2.53.126-3.794.19l.759 1.581h-2.025l1.328 2.782h2.087z"/><path data-name="Path 42757" d="M56.864 87.313h3.856l3.54-7.144c-1.392.126-2.719.19-4.046.316L56.8 87.249z"/><path data-name="Path 42758" d="M69.635 78.588l-1.712-3.413h-4.994l-1.956 3.92c1.328-.126 2.656-.253 4.046-.316h.885c1.264-.126 2.466-.19 3.794-.253l-.064.064z"/></g><g data-name="Group 11390"><path data-name="Path 42759" d="M95.303 87.317v-4.049l1.771-2.276c-2.34-.253-4.742-.505-7.27-.695l2.276 2.971v4.049h3.223z"/><path data-name="Path 42760" d="M94.165 79.346c1.328.126 2.592.253 3.794.443l3.54-4.615H97.39l-3.225 4.11v.064z"/><path data-name="Path 42761" d="M93.091 79.221l-3.1-4.046h-4.108l2.845 3.666c1.517.126 2.971.19 4.425.379h-.064z"/></g><g data-name="Group 11391"><path data-name="Path 42762" d="M121.984 75.175h-5.058l-3.794 7.52c1.2.316 2.4.569 3.476.885l2.845-5.627 1.9 3.666h-2.023l1.328 2.845h2.087l.505 1.012a46.572 46.572 0 014.8 1.771z"/><path data-name="Path 42763" d="M110.856 87.313h3.92l1.392-2.782c-1.074-.253-2.276-.569-3.476-.823l-1.833 3.666v-.064z"/></g></g><g data-name="Group 11393"><path data-name="Path 42764" d="M136.588 79.22a1.5 1.5 0 011.2.505l.19.19.759-.823-.126-.126a2.536 2.536 0 00-1.961-.823c-1.833 0-3.1 1.392-3.1 3.476s1.2 3.476 3.035 3.476 1.581-.316 2.087-.823v-3.028h-2.466v1.07h1.328v1.33a1.338 1.338 0 01-.885.253c-1.2 0-1.9-.885-1.9-2.34s.695-2.34 1.833-2.34z"/><path data-name="Path 42765" d="M146.704 80.169c0-.885-.443-1.961-2.4-1.961h-2.153v6.7h1.2v-2.654h.823l1.518 2.656h1.392l-1.643-2.845a1.974 1.974 0 001.328-1.9h-.064zm-1.2 0c0 .253 0 1.012-1.328 1.012h-.825v-1.9h.823c1.14.003 1.329.446 1.329.888z"/><path data-name="Path 42766" d="M153.279 78.082c-1.771 0-2.909 1.328-2.909 3.414s1.138 3.476 2.909 3.476 2.909-1.392 2.909-3.476-1.138-3.414-2.909-3.414zm1.643 3.414c0 1.454-.633 2.4-1.643 2.4s-1.643-.948-1.643-2.4.633-2.34 1.643-2.34 1.644.886 1.644 2.34z"/><path data-name="Path 42767" d="M163.395 82.13c0 1.771-.948 1.771-1.264 1.771s-1.264 0-1.264-1.771v-3.92h-1.2v3.92c0 2.4 1.328 2.909 2.466 2.909s2.466-.505 2.466-2.909v-3.92h-1.2z"/><path data-name="Path 42768" d="M170.223 78.208h-2.15v6.7h1.2v-2.462h.885c1.581 0 2.53-.823 2.53-2.15s-.823-2.087-2.53-2.087h.064zm1.328 2.024c0 .505-.19 1.074-1.392 1.074h-.823V79.22h.823c1.203 0 1.394.379 1.394 1.012z"/></g></g><path data-name="Line 6" fill="none" stroke="#fff" d="M0 57.283h195"/></g></svg>