<svg xmlns="http://www.w3.org/2000/svg" width="160" height="32.784"><g data-name="Group 9073" fill="#fff"><g data-name="Group 9069"><path data-name="Path 32352" d="M12.844 18.723h4.815l2.471-4.464c-3.181.8-6.011 1.6-8.457 2.347z"/><path data-name="Path 32353" d="M24.876 18.722h5.42v-6.767c-1.887.384-3.7.768-5.418 1.163z"/><path data-name="Path 32354" d="M15.246 13.162L7.919 0H0v18.723l5.418-2.106V5.342l5.276 9.52a179.975 179.975 0 0110.749-2.983l3.433-6.186v5.374q2.583-.592 5.418-1.163V0h-7.677z"/></g><g data-name="Group 9070"><path data-name="Path 32355" d="M68.197 14.259l2.292 4.5h5.989L70.65 7.206c-2 .066-3.949.154-5.868.263l1.228 2.4h-3.1l2.084 4.387z"/><path data-name="Path 32356" d="M49.836 18.723h6.033l5.527-11.045c-2.194.143-4.223.318-6.252.5z"/><path data-name="Path 32357" d="M69.644 5.221L67.012 0h-7.678l-3.071 6.076q3.038-.274 6.241-.494l1.294-.1c1.909-.097 3.865-.182 5.846-.261z"/></g><g data-name="Group 9071"><path data-name="Path 32358" d="M109.266 18.723v-6.274l2.709-3.5q-5.407-.646-11.308-1.096l3.532 4.574v6.274z"/><path data-name="Path 32359" d="M107.545 6.416c2.018.2 3.981.417 5.9.658L118.93 0h-6.373z"/><path data-name="Path 32360" d="M105.833 6.252L101.007 0h-6.405l4.387 5.7q3.532.234 6.844.552z"/></g><g data-name="Group 9072"><path data-name="Path 32361" d="M150.48 0h-7.82l-5.868 11.626c1.908.439 3.707.888 5.4 1.327l4.387-8.676 2.9 5.725h-3.093l2.106 4.387h3.29l.8 1.579a77 77 0 017.426 2.753z"/><path data-name="Path 32362" d="M133.216 18.722h6.076l2.194-4.387q-2.545-.658-5.407-1.316z"/></g></g><g data-name="Group 9074" fill="#fff"><path data-name="Path 32363" d="M29.217 28.68h3.192v-1.623h-3.192v-1.92h3.773v-1.612h-5.55v9.1h5.682v-1.62h-3.9z"/><path data-name="Path 32364" d="M51.461 25.029a1.941 1.941 0 011.525.658l.263.285 1.1-1.217-.23-.23a3.521 3.521 0 00-2.665-1.1c-2.523 0-4.212 1.887-4.212 4.705s1.645 4.651 4.113 4.651a4 4 0 002.852-1.1l.1-.11v-4.009h-3.46v1.6h1.777v1.656a2.1 2.1 0 01-1.1.318c-1.547 0-2.435-1.1-2.435-3.082s.88-3.025 2.372-3.025z"/><path data-name="Rectangle 23142" d="M58.82 23.525h1.777v9.104H58.82z"/><path data-name="Path 32365" d="M78.092 28.68h3.181v-1.623h-3.181v-1.92h3.762v-1.612h-5.55v9.1h5.682v-1.62h-3.894z"/><path data-name="Path 32366" d="M88.281 28.68h3.183v-1.623h-3.183v-1.92h3.762v-1.612h-5.539v9.1h5.671v-1.62h-3.894z"/><path data-name="Path 32367" d="M102.964 26.202c0-1.228-.57-2.709-3.29-2.709h-2.98v9.1h1.777v-3.51h.954l2.018 3.543h2.029l-2.194-3.806a2.61 2.61 0 001.686-2.618zm-3.455 1.305h-1.1v-2.4h1.1c1.393 0 1.678.45 1.678 1.1.004.346.004 1.3-1.674 1.3z"/><path data-name="Rectangle 23143" d="M107.87 23.525h1.777v9.104h-1.777z"/><path data-name="Path 32368" d="M129.596 25.029a1.941 1.941 0 011.525.658l.274.285 1.1-1.217-.23-.23a3.51 3.51 0 00-2.654-1.1c-2.534 0-4.223 1.887-4.223 4.705s1.634 4.651 4.1 4.651a4 4 0 002.852-1.1l.11-.11v-4.009h-3.466v1.6h1.777v1.656a2.1 2.1 0 01-1.1.318c-1.547 0-2.435-1.1-2.435-3.082s.88-3.025 2.37-3.025z"/><path data-name="Path 32369" d="M42.027 29.525l-3.367-6.011h-1.678v9.126h1.645v-6.022l3.389 6.022h1.656v-9.126h-1.645z"/><path data-name="Path 32370" d="M70.161 29.525l-3.378-6.011h-1.667v9.126h1.634v-6.022l3.389 6.022h1.657v-9.126h-1.635z"/><path data-name="Path 32371" d="M119.825 29.525l-3.378-6.011h-1.667v9.126h1.634v-6.022l3.389 6.022h1.657v-9.126h-1.634z"/></g></svg>