<svg xmlns="http://www.w3.org/2000/svg" width="246" height="123.49"><defs><clipPath id="a"><path data-name="Path 32480" d="M0 0h246v50.49H0z" fill="#fff"/></clipPath><clipPath id="b"><path data-name="Rectangle 23218" fill="none" d="M0 0h82.654v55H0z"/></clipPath></defs><g data-name="Group 12669"><g transform="translate(0 73)" clip-path="url(#a)" fill="#fff"><path data-name="Path 32461" d="M72.088 42.309l-1.837-.791c-1.123-.475-1.8-.822-1.8-1.637 0-.987.956-1.339 1.85-1.339a3.575 3.575 0 012.553 1.068l.426.4 1.58-1.9-.348-.355a5.921 5.921 0 00-4.212-1.757 4.229 4.229 0 00-4.6 3.974 4.089 4.089 0 002.948 3.83l1.857.811c1.253.566 1.813.855 1.813 1.775 0 .974-.8 1.554-2.145 1.554a4.532 4.532 0 01-3.164-1.444l-.418-.436-1.708 1.98.348.361a6.781 6.781 0 004.92 2.072c2.908 0 4.939-1.739 4.939-4.23a4.164 4.164 0 00-2.99-3.949"/><path data-name="Path 32462" d="M79.826 38.723h3.9v11.53h2.751v-11.53h3.9v-2.479H79.826z"/><path data-name="Path 32463" d="M98.471 36.244l-4.74 14.009h2.848l1.24-3.935h3.893l1.22 3.935h2.924l-4.744-14.009zm.1 7.654l.388-1.246c.278-.847.545-1.712.8-2.614.278.957.54 1.8.805 2.606l.388 1.253z"/><path data-name="Path 32464" d="M112.568 50.253h2.734v-5.785h4.92V41.99h-4.92v-3.268h5.8v-2.478h-8.539z"/><path data-name="Path 32465" d="M128.042 50.253h2.734v-5.785h4.92V41.99h-4.92v-3.268h5.8v-2.478h-8.539z"/><path data-name="Path 32466" d="M143.515 36.244h2.734v14.009h-2.734z"/><path data-name="Path 32467" d="M176.706 38.546a2.978 2.978 0 012.354 1.028l.413.438 1.659-1.872-.348-.366a5.46 5.46 0 00-4.1-1.765c-3.884 0-6.493 2.909-6.493 7.24s2.555 7.24 6.355 7.24a6.119 6.119 0 004.388-1.66l.158-.161v-6.2h-5.331v2.46h2.736v2.551a3.273 3.273 0 01-1.773.482c-2.376 0-3.739-1.728-3.739-4.743 0-2.877 1.424-4.661 3.72-4.661"/><path data-name="Path 32468" d="M160.934 45.466l-5.187-9.22h-2.564v14.012h2.514v-9.245l5.213 9.244h2.535V36.246h-2.514z"/><path data-name="Path 32469" d="M19.691 28.704h7.374l3.787-6.85a279.02 279.02 0 00-12.968 3.606z"/><path data-name="Path 32470" d="M38.122 28.699h8.3V18.326q-4.343.873-8.3 1.779z"/><path data-name="Path 32471" d="M23.365 20.226L12.133 0H0v28.7l8.3-3.237V8.179l8.088 14.592c4.579-1.424 10.085-3 16.478-4.569l5.251-9.472v8.232q3.961-.906 8.3-1.779V0H34.6z"/><path data-name="Path 32472" d="M104.859 21.776l3.513 6.9 9.171.017-8.922-17.658q-4.578.159-8.983.41l1.866 3.691h-4.74l3.186 6.637z"/><path data-name="Path 32473" d="M76.725 28.699h9.233l8.477-16.921q-4.907.341-9.581.777z"/><path data-name="Path 32474" d="M107.081 7.994L103.041 0H91.203l-4.7 9.3q4.67-.418 9.566-.742l2.05-.129q4.4-.265 8.967-.442"/><path data-name="Path 32475" d="M168.132 28.699v-9.621l4.143-5.367q-8.286-.967-17.333-1.647l5.418 7.011v9.624z"/><path data-name="Path 32476" d="M165.465 9.832q4.631.461 9.04 1L182.879 0h-9.814z"/><path data-name="Path 32477" d="M162.843 9.581L155.438 0h-9.814l6.756 8.741q5.358.361 10.463.839"/><path data-name="Path 32478" d="M231.541 0h-11.984l-9 17.81q4.389 1.025 8.269 2.047l6.733-13.306 4.438 8.778h-4.8l3.226 6.72h4.969l1.224 2.42a120.486 120.486 0 0111.394 4.23z"/><path data-name="Path 32479" d="M205.053 28.701h9.3l3.379-6.65q-3.9-1-8.286-2.012z"/></g><g data-name="Group 9152"><g data-name="Group 9151" clip-path="url(#b)" fill="#86d1f9" transform="translate(82)"><path data-name="Path 32481" d="M58.207 51.242L58.2 51.2a105.308 105.308 0 00-2.106-11.169 419.52 419.52 0 01-.791-3.6c-1.244-5.744-1.811-8.364-4.043-8.922-1.63-.408-4.291-1.2-5.729-1.529l-.263-.059-.126-1.095.206-.127a7.865 7.865 0 10-8.1.06l.212.125-.119 1.035-.263.059c-1.436.323-4.093 1.12-5.729 1.529-2.232.558-2.8 3.179-4.043 8.922-.23 1.065-.492 2.271-.792 3.6a105.356 105.356 0 00-2.106 11.169l-.007.042s-.679 3.278 2.112 3.706a3.142 3.142 0 003.708-2.8v-.027l2.794-13.333.32.083-.221 15.788h16.3l-.226-16.174.321-.083 2.879 13.747a3.219 3.219 0 003.6 2.158 2.638 2.638 0 002.217-3.064M39.4 23.716c-1.044-.469-4.153-2.187-3.964-5.945a6.058 6.058 0 015.834-5.741h.072a6.058 6.058 0 015.834 5.741c.189 3.759-2.92 5.476-3.964 5.945l.512 3.492h-4.836zm.678 6.584l-1.857 7.17-3.668-9.028 4.236-1.061 1.274 2.747a.255.255 0 01.015.171m4.329 7.338l-1.9-7.339a.256.256 0 01.015-.171l1.276-2.753 4.4 1.1-3.367 8.218z"/><path data-name="Path 32482" d="M20.567 44.532c.287-1.439.648-3.149 1.1-5.165.3-1.316.557-2.515.786-3.573a46.756 46.756 0 011.8-6.886 6.647 6.647 0 014.457-4.32 71.183 71.183 0 001.672-.446 10.9 10.9 0 01-1.911-5.776 2.8 2.8 0 00-1.54-.983c-1.63-.408-4.291-1.205-5.729-1.529l-.263-.059-.124-1.096.206-.127a7.865 7.865 0 10-8.1.061l.212.125-.121 1.041-.263.059c-1.436.323-4.093 1.12-5.729 1.529-2.232.558-2.8 3.179-4.043 8.922-.23 1.065-.492 2.271-.792 3.6A105.332 105.332 0 00.08 41.074l-.007.042s-.679 3.278 2.112 3.706a3.142 3.142 0 003.708-2.8v-.028l2.798-13.333.32.083-.22 15.788zm3.3-26.18L20.5 26.567l-.424.945-1.9-7.339a.255.255 0 01.019-.174l1.276-2.753zM11.109 7.644a6.058 6.058 0 015.834-5.745h.072a6.057 6.057 0 015.833 5.741c.19 3.759-2.919 5.477-3.964 5.945l.512 3.492H14.56l.512-3.492c-1.044-.469-4.153-2.187-3.964-5.945m3.353 9.611l1.275 2.748a.255.255 0 01.015.171l-1.857 7.17-3.668-9.028z"/><path data-name="Path 32483" d="M73.864 44.532l-.221-15.788.32-.083 2.794 13.333v.028a3.142 3.142 0 003.708 2.8c2.791-.428 2.112-3.706 2.112-3.706l-.007-.042A105.381 105.381 0 0080.469 29.9c-.3-1.328-.561-2.534-.792-3.6-1.243-5.743-1.811-8.364-4.043-8.922-1.636-.409-4.293-1.205-5.729-1.529l-.263-.059-.119-1.035.212-.125a7.863 7.863 0 10-8.1-.061l.206.127-.126 1.095-.263.059c-1.438.324-4.1 1.121-5.729 1.529a2.8 2.8 0 00-1.54.983 10.9 10.9 0 01-1.911 5.776c.611.169 1.2.328 1.673.446a6.648 6.648 0 014.457 4.32 46.781 46.781 0 011.8 6.885c.229 1.058.488 2.257.786 3.573.455 2.016.817 3.726 1.1 5.165zm-10.68-27.283L64.46 20a.255.255 0 01.015.171l-1.9 7.339-.424-.945-3.367-8.215zm4.4-3.659l.512 3.492h-4.838l.512-3.492c-1.044-.469-4.153-2.187-3.964-5.945A6.058 6.058 0 0165.641 1.9h.072a6.058 6.058 0 015.834 5.741c.189 3.759-2.92 5.477-3.964 5.945m4.846 4.726l-3.668 9.028-1.853-7.167a.255.255 0 01.015-.171l1.274-2.747z"/></g></g></g></svg>