<svg xmlns="http://www.w3.org/2000/svg" width="246" height="122.22"><g data-name="Group 12668"><g fill="#fff"><g data-name="Group 9074"><path data-name="Path 32363" d="M44.737 115.891h4.919v-2.5h-4.919v-2.955h5.815v-2.485h-8.553v14.03h8.756v-2.5h-6.018z"/><path data-name="Path 32364" d="M79.018 110.267a2.992 2.992 0 012.35 1.014l.406.439 1.69-1.876-.355-.355a5.426 5.426 0 00-4.108-1.69c-3.888 0-6.491 2.907-6.491 7.252s2.536 7.167 6.339 7.167a6.17 6.17 0 004.395-1.69l.152-.169v-6.187H78.07v2.468h2.74v2.552a3.229 3.229 0 01-1.69.49c-2.383 0-3.753-1.69-3.753-4.75s1.352-4.665 3.651-4.665z"/><path data-name="Rectangle 23142" d="M90.36 107.951h2.738v14.03H90.36z"/><path data-name="Path 32365" d="M120.064 115.891h4.9v-2.5h-4.9v-2.955h5.8v-2.485h-8.56v14.03h8.76v-2.5h-6z"/><path data-name="Path 32366" d="M135.762 115.891h4.9v-2.5h-4.9v-2.955h5.8v-2.485h-8.538v14.03h8.739v-2.5h-6z"/><path data-name="Path 32367" d="M158.397 112.075c0-1.893-.879-4.175-5.071-4.175h-4.6v14.03h2.738v-5.409h1.471l3.11 5.46h3.127l-3.375-5.866a4.023 4.023 0 002.6-4.04zm-5.325 2.012h-1.69v-3.7h1.69c2.147 0 2.586.693 2.586 1.69-.001.539-.001 2.01-2.587 2.01z"/><path data-name="Rectangle 23143" d="M165.952 107.951h2.738v14.03h-2.738z"/><path data-name="Path 32368" d="M199.438 110.267a2.992 2.992 0 012.35 1.014l.423.439 1.69-1.876-.355-.355a5.409 5.409 0 00-4.091-1.69c-3.9 0-6.508 2.907-6.508 7.252s2.519 7.167 6.322 7.167a6.17 6.17 0 004.395-1.69l.169-.169v-6.187h-5.341v2.468h2.738v2.552a3.228 3.228 0 01-1.69.49c-2.383 0-3.753-1.69-3.753-4.75s1.352-4.665 3.651-4.665z"/><path data-name="Path 32369" d="M64.481 117.197l-5.19-9.263h-2.586v14.064h2.536v-9.28l5.223 9.28h2.551v-14.064h-2.534z"/><path data-name="Path 32370" d="M107.838 117.197l-5.207-9.263h-2.569v14.064h2.519v-9.28l5.223 9.28h2.552v-14.064h-2.518z"/><path data-name="Path 32371" d="M184.381 117.197l-5.206-9.263h-2.574v14.064h2.519v-9.28l5.223 9.28h2.552v-14.064h-2.514z"/></g><g data-name="Group 9073"><g data-name="Group 9069"><path data-name="Path 32352" d="M19.794 101.862h7.421l3.8-6.88a275.823 275.823 0 00-13.033 3.617z"/><path data-name="Path 32353" d="M38.337 101.861h8.35V91.432c-2.907.592-5.7 1.183-8.35 1.792z"/><path data-name="Path 32354" d="M23.5 93.291L12.2 73.007H0v28.854l8.35-3.245V81.239l8.131 14.668a278.457 278.457 0 0116.565-4.6l5.291-9.534v8.283c2.654-.609 5.443-1.2 8.35-1.792V73.007H34.855z"/></g><g data-name="Group 9070"><path data-name="Path 32355" d="M104.883 94.982l3.533 6.93h9.23l-8.976-17.799c-3.076.1-6.085.237-9.043.406l1.893 3.7h-4.784l3.212 6.761z"/><path data-name="Path 32356" d="M76.587 101.861h9.3l8.516-17.022c-3.381.22-6.508.49-9.635.778z"/><path data-name="Path 32357" d="M107.114 81.053l-4.057-8.046H91.225l-4.733 9.365q4.682-.423 9.618-.761l1.995-.152c2.941-.152 5.95-.288 9.009-.406z"/></g><g data-name="Group 9071"><path data-name="Path 32358" d="M167.988 101.861v-9.668l4.175-5.392q-8.333-1-17.427-1.69l5.44 7.048v9.669z"/><path data-name="Path 32359" d="M165.334 82.896c3.11.3 6.136.642 9.094 1.014l8.452-10.903h-9.821z"/><path data-name="Path 32360" d="M162.697 82.642l-7.439-9.635h-9.87l6.761 8.79q5.443.355 10.548.845z"/></g><g data-name="Group 9072"><path data-name="Path 32361" d="M231.329 73.007h-12.056l-9.04 17.918c2.941.676 5.713 1.369 8.316 2.045l6.761-13.371 4.463 8.824h-4.767l3.245 6.761h5.071l1.234 2.434A118.675 118.675 0 01246 101.861z"/><path data-name="Path 32362" d="M204.722 101.861h9.365l3.381-6.761q-3.922-1.014-8.333-2.028z"/></g></g></g><path d="M97.065-.003a3.866 3.866 0 00-3.861 3.857v33.725l-3.965 12.03v.005a5.438 5.438 0 00-.139 2.592 3.3 3.3 0 001.173 1.943 4.686 4.686 0 002.956.848h59.255a4.943 4.943 0 003.1-.845 3 3 0 001.116-1.995 5.08 5.08 0 00-.381-2.569l-3.7-12V3.857A3.866 3.866 0 00148.759 0zm0 1.411h51.691a2.428 2.428 0 012.45 2.447v33.133h-56.59V3.857a2.427 2.427 0 012.449-2.447zm.233 2.025a.705.705 0 00-.705.7l-.039 30.431a.705.705 0 00.706.706h51.3a.705.705 0 00.705-.7V4.14a.706.706 0 00-.705-.7zm.705 1.41h49.854v29.024h-10.2a.709.709 0 00-.1-.129l-2.281-2.28a14.356 14.356 0 001.562-3.757h3.221a.705.705 0 00.705-.7V21.29a.705.705 0 00-.705-.706h-3.229a14.367 14.367 0 00-1.549-3.763l2.276-2.275a.7.7 0 000-1l-4.041-4.038a.706.706 0 00-1 0l-2.281 2.28a14.375 14.375 0 00-3.759-1.563V7.007a.705.705 0 00-.705-.7h-5.714a.705.705 0 00-.705.7v3.227a14.385 14.385 0 00-3.765 1.548l-2.28-2.276a.706.706 0 00-1 0l-4.041 4.038a.7.7 0 000 1l2.281 2.28a14.354 14.354 0 00-1.562 3.758h-3.218a.705.705 0 00-.7.706v5.709a.705.705 0 00.7.7h3.229a14.366 14.366 0 001.549 3.763l-2.276 2.275a.708.708 0 00-.1.129h-10.2zm22.755 2.865h4.3v3.029a.705.705 0 00.557.689 13.015 13.015 0 014.361 1.812.706.706 0 00.883-.092l2.148-2.147 3.043 3.041-2.141 2.14a.7.7 0 00-.094.881 13 13 0 011.8 4.365.705.705 0 00.69.56h3.041v4.3h-3.03a.706.706 0 00-.69.558 13 13 0 01-1.812 4.359.705.705 0 00.091.883l1.778 1.777h-5.527a12.176 12.176 0 003.932-5.007.706.706 0 10-1.3-.549 10.778 10.778 0 01-3.886 4.716q-.428.289-.883.537a9.58 9.58 0 01-.463.236.712.712 0 00-.115.066h-9.064a.711.711 0 00-.115-.066c-.156-.076-.31-.154-.461-.236q-.455-.248-.884-.537a10.8 10.8 0 01-1.587-1.309 10.671 10.671 0 01-3.141-7.578.706.706 0 10-1.411 0 12.131 12.131 0 004.887 9.727h-5.527l1.771-1.77a.7.7 0 00.094-.881 13 13 0 01-1.8-4.366.705.705 0 00-.691-.56h-3.04v-4.3h3.03a.706.706 0 00.69-.557 13.007 13.007 0 011.813-4.36.7.7 0 00-.093-.883l-2.148-2.147 3.043-3.042 2.141 2.139a.706.706 0 00.881.094 13.018 13.018 0 014.369-1.8.705.705 0 00.559-.689zm2.152 4.3a12.146 12.146 0 00-11.18 7.407.706.706 0 101.3.55 10.727 10.727 0 0120.605 4.171.706.706 0 101.411 0 12.142 12.142 0 00-12.139-12.125zm0 2.856a9.272 9.272 0 109.276 9.273 9.285 9.285 0 00-9.279-9.27zm0 1.411a7.862 7.862 0 11-7.865 7.862 7.853 7.853 0 017.862-7.86zM94.421 38.397h56.969l3.589 11.644a.708.708 0 00.029.077 4.322 4.322 0 01.289 1.85 1.5 1.5 0 01-.582 1.069 3.6 3.6 0 01-2.233.549h-17.315l-.93-3.924a.706.706 0 00-.687-.542h-21.335a.705.705 0 00-.684.532l-1 3.934H93.227a3.271 3.271 0 01-2.085-.547 1.831 1.831 0 01-.663-1.125 4.441 4.441 0 01.1-1.87zm4.737 2.221a.706.706 0 100 1.411h47.2a.706.706 0 100-1.411zm-2.121 2.794a.706.706 0 100 1.411h51.444a.706.706 0 100-1.411zm-2.854 2.772a.706.706 0 100 1.411h57.153a.706.706 0 100-1.411zm18.581 4.345h20.228l.724 3.056H111.99z" fill="#86d1f9"/></g></svg>