<svg xmlns="http://www.w3.org/2000/svg" width="165" height="66.606"><defs><linearGradient id="a" x1=".5" x2=".5" y2="1" gradientUnits="objectBoundingBox"><stop offset="0" stop-color="#e0b77d"/><stop offset="1" stop-color="#ff860d"/></linearGradient></defs><g data-name="グループ 12729"><path data-name="パス 43833" d="M550.65 62.142l-8.079 8.079a2.718 2.718 0 003.844 3.843l7.986-7.985a15.869 15.869 0 01-3.752-3.936" transform="translate(-537.056 -34.03)" fill="url(#a)"/><path data-name="パス 43834" d="M563.082 75a17.5 17.5 0 1117.5-17.5 17.5 17.5 0 01-17.5 17.5m0-31.576a14.071 14.071 0 1014.07 14.076 14.07 14.07 0 00-14.071-14.071" transform="translate(-536.354 -38.145)" fill="url(#a)"/><path data-name="パス 43835" d="M565.907 57.965v-6.828l-4.319 4.779-4.336-4.762v6.81h-2.68v-9.9l1.791-1.673 5.244 5.614 5.24-5.616 1.811 1.707v9.869z" transform="translate(-534.683 -36.957)" fill="url(#a)"/><path data-name="パス 43836" d="M557.893 62.533h3.983l-4.487-3.791 1.547-2.1h5.219v1.788h-3.887l4.523 3.777-1.622 2.113h-5.276z" transform="translate(-534.159 -35.052)" fill="url(#a)"/><path data-name="パス 43837" d="M570.43 75.8l-.249-.637a18.661 18.661 0 10-13.341-34.858 6.2 6.2 0 00-.279.108A18.68 18.68 0 00546 64.6l-.639.249A19.347 19.347 0 11570.43 75.8" transform="translate(-536.643 -38.435)" fill="url(#a)"/><g data-name="グループ 12587" transform="translate(53.239 25.734)" fill="url(#a)"><path data-name="パス 43823" d="M.914 10.919h7.222L0 4.044 2.806.237h9.463v3.242H5.221l8.2 6.853-2.937 3.829H.912z"/><path data-name="パス 43824" d="M28.368.24v3.111h-8.355v2.176h7.526v3.24h-7.527v2.284h8.437v3.112H16.575V.24z"/><path data-name="パス 43825" d="M42.986 14.163v-3.394h-7.331v3.394h-3.481v-8.79L37.417 0h3.872l5.2 5.352v8.809zm-3.655-11.27l-3.677 3.542v1.292h7.331V6.483z"/><path data-name="パス 43826" d="M50.665 14.163V.24H62.13l2.85 2.849v3.416l-2.719 2.763h-.588l3.633 3.542-2.567 2.262-5.267-5.352h-3.285v4.438zm3.524-7.55h6.11l1.09-1.09V4.351l-1.041-1.024h-6.156z"/><path data-name="パス 43827" d="M81.336 5.112l-1.7-1.7h-5.743l-1.635 1.635v4.308l1.635 1.634h5.788l1.675-1.653 2.5 2.524-2.394 2.415h-9.2l-3.654-3.677V3.834l3.654-3.7h9.224l2.415 2.415z"/><path data-name="パス 43828" d="M98.609 14.162V8.827h-7.636v5.33h-3.525V.24h3.525v5.243h7.636V.24h3.521v13.922z"/></g><path data-name="パス 43829" d="M598.958 58.646v-8.892l-5.624 6.223-5.646-6.2v8.873H584.2V45.755l2.333-2.179 6.825 7.314 6.825-7.314 2.357 2.224v12.846z" transform="translate(-530.96 -39.676)" fill="url(#a)"/><path data-name="パス 43830" d="M627.284 58.942v-3.38h-7.536v3.379h-3.554v-9.982l4.246-4.379h6.2l4.223 4.335v10.027zm-2.29-11h-2.957l-2.289 2.224v2.312h7.536V50.2z" transform="translate(-540.345 -39.97)" fill="url(#a)"/><path data-name="パス 43831" d="M656.031 44.769v4.158l-5.624 5.513V59h-3.646v-4.54l-5.624-5.535v-4.156h3.646v2.8l3.846 3.845 3.779-3.845v-2.8z" transform="translate(-547.662 -40.025)" fill="url(#a)"/><path data-name="パス 43832" d="M669.954 50.162l2.289-2.225h2.957l2.289 2.268v2.269h-7.536zm.689-5.581L666.4 48.96v9.982h3.557v-3.38h7.537v3.379h3.579V48.916l-4.224-4.335z" transform="translate(-555.072 -39.97)" fill="url(#a)"/><text data-name="ITお仕事検索 : マヤサーチ" transform="translate(0 63.606)" fill="#ff860d" font-size="14" font-family="Helvetica"><tspan x="0" y="0">IT</tspan><tspan y="0" font-family="HiraginoSans-W3, Hiragino Sans">お仕事検索</tspan><tspan y="0"> : </tspan><tspan y="0" font-family="HiraginoSans-W3, Hiragino Sans">マヤサーチ</tspan></text></g></svg>