<svg xmlns="http://www.w3.org/2000/svg" width="165" height="66.606"><g data-name="グループ 12588" fill="#fff"><path data-name="パス 43833" d="M13.594 28.112l-8.079 8.079a2.718 2.718 0 003.844 3.843l7.986-7.985a15.869 15.869 0 01-3.752-3.936"/><path data-name="パス 43834" d="M26.728 36.855a17.5 17.5 0 1117.5-17.5 17.5 17.5 0 01-17.5 17.5m0-31.576a14.071 14.071 0 1014.07 14.076A14.07 14.07 0 0026.727 5.284"/><path data-name="パス 43835" d="M31.224 21.008V14.18l-4.319 4.779-4.336-4.762v6.81h-2.68v-9.9l1.791-1.673 5.244 5.614 5.24-5.616 1.811 1.707v9.869z"/><path data-name="パス 43836" d="M23.734 27.481h3.983L23.23 23.69l1.547-2.1h5.219v1.788h-3.887l4.523 3.777-1.622 2.113h-5.276z"/><path data-name="パス 43837" d="M33.787 37.365l-.249-.637A18.662 18.662 0 1020.197 1.87a6.2 6.2 0 00-.279.108A18.68 18.68 0 009.357 26.165l-.639.249a19.347 19.347 0 1125.069 10.951"/><g data-name="グループ 12587"><path data-name="パス 43823" d="M54.153 36.653h7.222l-8.136-6.875 2.806-3.807h9.463v3.242H58.46l8.2 6.853-2.937 3.829h-9.572z"/><path data-name="パス 43824" d="M81.607 25.974v3.111h-8.355v2.176h7.526v3.24h-7.527v2.284h8.437v3.112H69.814V25.974z"/><path data-name="パス 43825" d="M96.225 39.897v-3.394h-7.331v3.394h-3.481v-8.79l5.243-5.373h3.872l5.2 5.352v8.809zm-3.655-11.27l-3.677 3.542v1.292h7.331v-1.244z"/><path data-name="パス 43826" d="M103.904 39.897V25.974h11.465l2.85 2.849v3.416l-2.719 2.763h-.588l3.633 3.542-2.567 2.262-5.267-5.352h-3.285v4.438zm3.524-7.55h6.11l1.09-1.09v-1.172l-1.041-1.024h-6.156z"/><path data-name="パス 43827" d="M134.575 30.846l-1.7-1.7h-5.743l-1.635 1.635v4.308l1.635 1.634h5.788l1.675-1.653 2.5 2.524-2.394 2.415h-9.2l-3.654-3.677v-6.764l3.654-3.7h9.224l2.415 2.415z"/><path data-name="パス 43828" d="M151.848 39.896v-5.335h-7.636v5.33h-3.525V25.974h3.525v5.243h7.636v-5.243h3.521v13.922z"/></g><path data-name="パス 43829" d="M67.998 18.97v-8.892l-5.624 6.223-5.646-6.2v8.873H53.24V6.079L55.573 3.9l6.825 7.314L69.223 3.9l2.357 2.224V18.97z"/><path data-name="パス 43830" d="M86.939 18.972v-3.38h-7.536v3.379h-3.554V8.989l4.246-4.379h6.2l4.223 4.335v10.027zm-2.29-11h-2.957l-2.289 2.224v2.312h7.536V10.23z"/><path data-name="パス 43831" d="M108.369 4.744v4.158l-5.624 5.513v4.56h-3.646v-4.54L93.475 8.9V4.744h3.646v2.8l3.846 3.845 3.779-3.845v-2.8z"/><path data-name="パス 43832" d="M114.882 10.192l2.289-2.225h2.957l2.289 2.268v2.269h-7.536zm.689-5.581l-4.243 4.379v9.982h3.557v-3.38h7.537v3.379h3.579V8.946l-4.224-4.335z"/><text data-name="ITお仕事検索 : マヤサーチ" transform="translate(0 63.606)" font-size="14" font-family="Helvetica"><tspan x="0" y="0">IT</tspan><tspan y="0" font-family="HiraginoSans-W3, Hiragino Sans">お仕事検索</tspan><tspan y="0"> : </tspan><tspan y="0" font-family="HiraginoSans-W3, Hiragino Sans">マヤサーチ</tspan></text></g></svg>