<svg xmlns="http://www.w3.org/2000/svg" width="210.984" height="36.971"><g data-name="グループ 12608" fill="#fff"><g data-name="グループ 12604"><g data-name="グループ 12139"><path data-name="パス 43833" d="M5.201 15.543L.455 20.289a1.6 1.6 0 002.258 2.258l4.691-4.691a9.322 9.322 0 01-2.2-2.312"/><path data-name="パス 43834" d="M12.915 20.68a9.808 9.808 0 1110.282-9.8 10.048 10.048 0 01-10.282 9.8m0-17.673a7.885 7.885 0 108.265 7.875 8.077 8.077 0 00-8.265-7.875"/><path data-name="パス 43835" d="M15.555 12.027v-4.01l-2.537 2.807-2.547-2.8v4H8.897V6.212l1.052-.983 3.08 3.3 3.078-3.3 1.064 1v5.8z"/><path data-name="パス 43836" d="M11.156 15.508h2.34l-2.636-2.227.909-1.233h3.066v1.05h-2.283l2.657 2.219-.953 1.241h-3.1z"/><path data-name="パス 43837" d="M17.061 20.977l-.146-.358a10.342 10.342 0 006.319-13.53A11.123 11.123 0 009.078 1.05c-.056.019-.11.039-.164.061a10.345 10.345 0 00-6.2 13.578l-.375.14A10.715 10.715 0 018.773.752a11.54 11.54 0 0114.728 6.15 10.725 10.725 0 01-6.435 14.075"/></g><g data-name="グループ 12140"><path data-name="パス 43823" d="M111.211 15.09h7.119l-8.019-6.776 2.766-3.752h9.328v3.191h-6.948l8.084 6.755-2.895 3.774h-9.435z"/><path data-name="パス 43824" d="M138.272 4.564V7.63h-8.235v2.149h7.418v3.19h-7.419v2.251h8.32v3.067h-11.708V4.564z"/><path data-name="パス 43825" d="M152.681 18.287v-3.345h-7.226v3.346h-3.431V9.624l5.168-5.3h3.817l5.125 5.275v8.683zm-3.6-11.109l-3.624 3.491v1.271h7.226v-1.223z"/><path data-name="パス 43826" d="M160.251 18.288V4.564h11.3l2.809 2.809v3.367l-2.68 2.724h-.58l3.585 3.487-2.531 2.23-5.192-5.275h-3.238v4.374zm3.474-7.437h6.026l1.074-1.074v-1.16l-1.029-1.007h-6.068z"/><path data-name="パス 43827" d="M190.485 9.366l-1.673-1.67h-5.661l-1.611 1.611v4.246l1.611 1.611h5.7l1.651-1.629 2.466 2.488-2.359 2.38h-9.071l-3.6-3.624V8.106l3.6-3.645h9.092l2.38 2.38z"/><path data-name="パス 43828" d="M207.509 18.287v-5.255h-7.526v5.253h-3.474V4.564h3.474v5.167h7.527V4.564h3.474v13.723z"/><path data-name="パス 43829" d="M45.958 18.558V9.792l-5.547 6.135-5.565-6.115v8.746h-3.435V5.85l2.3-2.148 6.727 7.21 6.727-7.21 2.323 2.192v12.664z"/><path data-name="パス 43830" d="M64.627 18.558v-3.331h-7.425v3.331h-3.5V8.722l4.185-4.317h6.114l4.163 4.273v9.883zM62.37 7.711h-2.915l-2.253 2.192v2.279h7.428V9.946z"/><path data-name="パス 43831" d="M85.752 4.534v4.1l-5.544 5.431v4.492h-3.594v-4.471L71.07 8.63v-4.1h3.594v2.765l3.791 3.79 3.725-3.79V4.534z"/><path data-name="パス 43832" d="M92.169 9.904l2.257-2.193h2.914l2.257 2.236v2.237h-7.428zm.679-5.5l-4.179 4.318v9.84h3.5v-3.334h7.43v3.331h3.528V8.676l-4.158-4.273z"/></g></g><text data-name="ITお仕事検索 : マヤサーチ" transform="translate(47 34.971)" font-size="10" font-family="Helvetica"><tspan x="0" y="0">IT</tspan><tspan y="0" font-family="HiraginoSans-W3, Hiragino Sans">お仕事検索</tspan><tspan y="0"> : </tspan><tspan y="0" font-family="HiraginoSans-W3, Hiragino Sans">マヤサーチ</tspan></text></g></svg>